<?xml version="1.0" encoding="UTF-8"?>
<svg id="Layer_1" data-name="Layer 1" xmlns="http://www.w3.org/2000/svg" viewBox="0 0 105.57 26.18">
    <defs>
        <style>
            .cls-1 {
            fill: #231f20;
            }
        </style>
    </defs>
    <path class="cls-1" d="M9.72,7.34c.34.17.48.17.58.44.17.34.24,2.31.24,2.62,0,.61-.07,1.22-.07,1.84v.07c.99-.41,1.77-1.05,3.2-1.46h.07c.2,0,.37.2.54.24l-.17.03c.07.07.17.07.27.1l-.37.17-.03.07c.17,0,.31-.03.44-.03-.1.03-.2.1-.31.17l-.1.2c-1.09.61-2.52,1.5-3.71,2.31l-.27,1.39c-.41,3.09-2.65,8.64-5.68,10.2-.24.1-.95.48-1.29.48-.31,0-.61-.1-.92-.37h-.03c-.17-.24-1.02-.51-1.09-.82.03-.03,0-.1-.07-.14-.07-.07-.1-.2-.1-.34l.17-.14c0-.14.07-.27.1-.44l.1-.1c1.02-3.43,4.35-8.09,7.28-10.17.31-.51.48-3.77.48-4.28v-.14c-.71.92-1.19,1.77-1.94,2.69-.82,1.09-3.47,5.27-4.9,5.27-1.22,0-2.14-1.02-2.14-2.07,0-2.69,3.06-6.8,5.37-6.8.65,0,1.19.27,1.7.65.48-.41,1.36-1.77,1.94-1.77.07,0,.41.17.61.17l.1-.03ZM6.26,10.03c-.17-.1-.34-.14-.51-.14-1.22,0-2.75,2.07-3.57,3.67-.34.95-.44,1.43-.44,2.41.65-.37,4.25-5.37,4.52-5.95ZM8.23,15.88c-.07.07-.2.14-.27.24-1.56,1.5-5,6.02-5,8.23h.03c.27-.07.51-.17.54-.37.07,0,.17-.03.17-.1l.03.07c1.6-1.05,3.26-4.39,3.91-6.19.1-.1.58-1.77.58-1.77v-.1Z"/>
    <path class="cls-1" d="M19.86,18.8c-.68-.07-1.46-.37-1.7-.88-.68-1.43.2-4.18.44-5.03-.54.85-2.99,4.73-4.25,4.73-.2,0-.41-.03-.54-.1-.92.03-1.16-1.16-1.16-1.9,0-2.48,1.5-4.96,2.07-7.34l.07-.31s0-.1-.03-.14c.03-.03.1-.03.2-.03h.24c.34.03.54.07.71.17.31.1.51.51.51.85,0,1.77-1.73,4.73-1.73,6.9,1.33-1.26,3.88-5.44,5.2-6.94v-.1l.1-.03c.17.07.34.07.48.07.17,0,.34,0,.54.07.31.1.44.37.31.85-.48,1.77-1.87,6.66-1.5,7.82h.07c.1,0,.17-.07.34-.14,1.33-1.7,2.72-4.22,4.28-6.66v.17s0,.07,0,.1c0,.14.1.14.03.27,0,.1,0,.24-.03.34v.07c.03-.1.07-.14.07-.2l.03.1s-.03.1.1.1c0,.07-.07.17,0,.17,0,0,.03,0,.07-.03v.07l-.03.1-.07.03v.07c.1.1,0,.34-.14.48.03.2-.24.65-.37.85,0,.03.03.17-.07.2.03.14-.1.24-.17.34-.27.99-2.21,3.77-3.2,4.56-.34.2-.34.17-.88.37Z"/>
    <path class="cls-1" d="M32.57,11.08l.1.14c0,.2-.17.44-.17.61,0,.03.07.07.07.07l.1.1c-.03.44-.37.82-.51,1.16-.85,2.24-4.21,5.95-6.15,5.95-.1,0-.17-.03-.24-.03-2.18-.31-2.99-1.6-2.89-3.74.14-2.35,2.01-6.26,3.77-7.62l.07-.1c.03-.07.48-.07.61-.07.24,0,1.09.27,1.29.37.68.2,1.02.44,1.02,1.22,0,3.09-3.77,3.23-4.01,3.26-.44.85-1.94,5.41-.03,5.41,1.6,0,4.69-3.71,5.64-5.1.27-.41,1.02-1.67,1.39-1.87,0,.07,0,.17-.07.24ZM26.25,11.08c1.43-.31,2.35-1.53,1.63-2.24-.27.17-1.22,1.53-1.63,2.24Z"/>
    <path class="cls-1" d="M32.23,16.28l.14.03-.2.27v.03l.44-.41c.03.1,0,.1.1.14l.1-.17.1.1c-.1.03-.17.24-.2.31l.2-.2.07.14-.68,1.09.03.14c.65,0,1.84-.65,1.84-1.36,0-1.09-2.28-3.47-2.28-5.61,0-1.97,2.18-4.08,4.15-4.08.41,0,2.11,1.02,2.11,1.43v.07c-.2.37-.68,1.97-1.16,1.97-.31,0-.34-.14-.54-.2-.03-.17.07-.68.14-.88.07-.51.24-.71-.2-.92-1.02,0-2.65,1.6-2.65,2.62,0,1.63,2.18,3.6,2.18,5.58,0,1.56-1.87,2.72-3.3,2.72-.58,0-1.6-.85-1.6-1.46s1.09-1.29,1.22-1.33Z"/>
    <path class="cls-1" d="M45.7,4.93c-.92-.24-1.8-.24-2.72-.24-.65,2.35-1.87,5.51-2.38,6.73-.75,1.53-1.12,4.11-1.19,5.2,0,.27-.03.58-.03.82,0,.2.03.48.07.68l.07.07.34-.03c1.26-1.16,3.71-4.45,5.27-6.83l.17.31-.1.07c0,.1.2.58.24.65h.14c-.24.61-.44.41-.65,1.09l-.2.24c-.1.31-.41.71-.58,1.09l.24-.31c-.03.1-.17.24-.24.34l.24-.24c-.03.14-.07.2-.07.31l.07-.17v.1c-.17.31-1.67,2.18-1.87,2.45-.17.2-.82.92-1.02,1.16-.07.14-.17.2-.27.24l-.1.14c-.51.17-1.05.61-1.7.61-.75,0-1.05-.65-1.53-1.12-.1-.44-.31-1.02-.27-1.46.03-.03,0-.65,0-.78.27-3.06,1.8-7.17,3.2-11.12-1.16.17-2.31.27-3.47.27-.71,0-1.02-.2-1.19-.31-.14-.14-.24-.51-.24-.61v-.27l.88.1c1.39,0,2.92-.34,4.45-.51.27-.75.51-1.53.78-2.28h.1c.14,0,.41.03.51.03h.1c.07,0,.17.03.31.07l.24.27c.03.2.07.44.07.68.03.31-.03.71-.1,1.19.92.1,2.38.31,2.38,1.02,0,.03.1.31.07.37Z"/>
    <path class="cls-1" d="M49.84,7.55c1.87-.03,1.97,2.55,1.87,3.84-.03.34-.1.48-.1.68v.03c.65-.27,1.7-.88,2.65-.88.1,0,.2,0,.31.03.07.03.2.14.27.17l.03.03c-.03.07-.1.07-.14.17l.03.03s-.1.03-.1.03h-.07l.07.14-.2.07-.03.1h.03v.03c-.68.2-2.75,1.26-3.16,1.63-.71,2.24-2.45,4.66-4.05,5.71-.44.17-.65.37-1.22.37h-.17c-1.12,0-.95-.37-1.73-.78l-.1-.14c0-.1.14-.2.24-.24.2-.34.41-.71.68-1.09l-.07.07-.2-.24v.07c.07.1.1.1.1.17l-.03.03c-1.16-.31-1.5-1.12-1.53-2.07,0-.58.2-1.63.34-2.18.61-3.09,2.65-8.57,3.77-11.73.07-.1,0-.31-.07-.41.2,0,.95.24,1.19.37.82.48-.65,4.28-.78,4.69-.68,1.77-1.56,4.39-1.84,5.75v.03c.48-1.26,2.01-4.45,4.01-4.52ZM44.95,17.51s.03-.07.07-.1c1.12-1.53,2.72-3.13,4.42-4.25.51-.85,1.26-4.42.51-4.39-1.43.03-4.15,6.19-4.76,7.72-.1.24-.03.44-.1.68l-.1.07.03.17s-.14-.07-.17-.1l.1.2ZM48.31,15.81l.24-.31c-.61.48-1.77,1.73-2.65,2.96l.14.07c.14-.1.24-.14.27-.27v-.03l.07.03c.75-.54,1.46-1.67,1.94-2.45Z"/>
    <path class="cls-1" d="M58.21,9.99c.1.41.2.85.24,1.26.03,1.16-.58,3.3-.99,4.35-.41.95-1.63,2.75-2.82,2.79-1.22,0-1.9-.65-2.04-1.87-.14-3.09,2.96-7.75,3.26-8.7l.07-.1.51-.1h.27c.51,0,.78.1,1.05.61-.14.51-.27.37-.48.71.1.03.14.07.17.1.85-.31,2.01-.58,2.89-.65.2,0,.65-.03,1.05-.03.58,0,1.16.07,1.29.37l-.34.27.03.03-.1.03.03.14s-.03.03-.03.07c0,0,.07.14.1.14l-.07.03c-.27-.03-.54-.03-.82-.03-1.22.07-2.24.37-3.3.58ZM54.33,17.34c.1,0,.2-.1.24-.2,1.19-1.26,2.28-4.83,2.18-6.46,0-.17-.1-.27-.14-.44-.75,1.16-1.29,2.72-1.43,2.89-.48,1.36-.95,3.23-.88,3.88.03.1.03.2.03.34Z"/>
    <path class="cls-1" d="M64.36,11.83c.1,1.12-.07,1.87-.48,3.13-.34.99-1.36,2.79-2.55,2.89-.1,0-.2.03-.31.03-1.05,0-1.6-.82-1.73-1.73-.27-2.45,1.6-5.68,2.79-7.51.07-.03.17-.07.31-.07.31,0,.71.14.99.68-.1.1-.2.34-.27.44.78.34,1.16.99,1.26,2.14ZM61.27,16.69c1.02-1.43,1.77-3.94,1.5-5.58,0-.14-.03-.27-.14-.48-.27.41-.99,2.31-1.09,2.52-.44,1.36-.65,2.65-.54,3.23,0,.14.03.31.07.41.07-.03.17-.07.2-.1Z"/>
    <path class="cls-1" d="M73.81,4.66l.1-.14h.14q.07.03.14.03c.17,0,.34-.03.48-.07.1.03.17.1.31.17h.07l.1.03v.1c-.27.58-.51,1.09-.78,1.63-.37.58-2.89,3.54-3.43,3.98-.17.03-2.52,2.55-2.65,2.92.34,1.84,1.67,3.84,3.74,3.84h.41c.1,0,.2,0,.41-.03-.1.1-.14.17-.27.2-.03.03.03.03.03.03h-.03c-.14,0-.31.03-.44.03h-.1c-.24.1-.54.1-.82.1l.1.03c-.1,0-.24.03-.34.03h-.07c-.1-.03-.17-.03-.31-.03-.03-.03-.1-.03-.24-.03v.07c.17,0,.54.17.71.17l.03.03h-.24c-1.7,0-2.86-1.36-3.74-2.62-.31.95-.71,2.14-.71,3.09-.1.07-.1.2-.1.27,0,.24.1.44.2.65l-.1-.03v.03c.07.1.17.24.31.31l.07.07c-.27.07-.48.31-.71.31-.88,0-1.26-2.21-1.26-2.92,0-1.22.61-3.43,1.36-5.81,1.43-4.76,3.4-10.33,3.33-10.71l.03-.17c.24-.14.44-.24.75-.24.58,0,.58.41.58.85,0,3.23-1.53,6.12-2.31,9.18h-.03l.03.03c.82-.82,5.07-4.69,5.27-5.41Z"/>
    <path class="cls-1" d="M73.2,18.26c-.1-.14-.2-.44-.2-.65,0-.41.31-1.22.92-1.22h.2c.48,0,.68.34.71.71.03.85-.65,1.36-1.19,1.46-.1-.1-.44-.14-.44-.31Z"/>
    <path class="cls-1" d="M83.91,11.52c0,.1-.03.2-.07.31l.03.03c-.14.27-.24.75-.34,1.02,0,.03-.07.07,0,.07-1.43,2.18-2.62,3.77-4.25,5.17-.51.24-.85.51-1.46.51-1.05-.27-2.14-1.05-2.07-2.89.14-2.38,2-6.43,2.31-7.14l.1-.1h.07c.24,0,.34.14.54.14.27.03.41.14.54.27.03.2.1.54.07.75-.61,2.69-1.97,5.92-1.63,7.55,0,.1.03.14.17.14,1.09.07,3.47-3.6,5.81-6.53l.1-.03.07-.1c-.03.31,0,.58,0,.85ZM78.74,7.79l-.2-.14h-.1c-.07,0-.17-.2-.17-.27.07-.54.34-.99.88-1.36.2-.03.34-.07.51-.07.31,0,.44.07.58.24v.34l.14.03s.03.07.03.07c0,.41-.95.88-1.26,1.12v-.17l-.14.17h-.14l-.14.07v-.03Z"/>
    <path class="cls-1" d="M93.33,11.42c.17.07.14.2.14.37-.14.34.03.68-.07,1.05-.95,1.87-2.45,5.1-4.76,5.58-1.29,0-2.01-.92-2.04-2.28-.07-1.7.99-4.56.95-5.47,0-.17-.1,0-.1,0-1.63,2.14-3.23,4.42-4.08,6.97-.1.37-.2.68-.27.78-.1,0-.17.03-.2.1-.07-.03-.1-.03-.1-.03-.03,0-.03.03-.14.03-.14-.07-.07-.1-.17-.14l-.03.07c-.17-.1-.27-.2-.41-.2-.14-.1-.14-.24-.27-.31l-.07-.03c-.07-.2-.14-.31-.14-.54-.1-2.31,2.11-7.55,2.01-8.8v-.2l.03-.2c.2.03.58.03.92.17,1.02.31.44,2.55.2,3.33l-.03.14c.31-.37,2.11-2.79,2.99-2.82.61.07,1.33.44,1.5.85.03.07.03.24.07.37.41,1.43-1.26,5.2-.68,7.11h.03c.82-.2,2.48-2.75,3.71-4.83.17-.34.82-1.29.95-1.43.1.03.1.2.07.37Z"/>
    <path class="cls-1" d="M100.87,7.34c.34.17.48.17.58.44.17.34.24,2.31.24,2.62,0,.61-.07,1.22-.07,1.84v.07c.99-.41,1.77-1.05,3.2-1.46h.07c.2,0,.37.2.54.24l-.17.03c.07.07.17.07.27.1l-.37.17-.03.07c.17,0,.31-.03.44-.03-.1.03-.2.1-.31.17l-.1.2c-1.09.61-2.52,1.5-3.71,2.31l-.27,1.39c-.41,3.09-2.65,8.64-5.68,10.2-.24.1-.95.48-1.29.48-.31,0-.61-.1-.92-.37h-.03c-.17-.24-1.02-.51-1.09-.82.03-.03,0-.1-.07-.14-.07-.07-.1-.2-.1-.34l.17-.14c0-.14.07-.27.1-.44l.1-.1c1.02-3.43,4.35-8.09,7.28-10.17.31-.51.48-3.77.48-4.28v-.14c-.71.92-1.19,1.77-1.94,2.69-.82,1.09-3.47,5.27-4.9,5.27-1.22,0-2.14-1.02-2.14-2.07,0-2.69,3.06-6.8,5.37-6.8.65,0,1.19.27,1.7.65.48-.41,1.36-1.77,1.94-1.77.07,0,.41.17.61.17l.1-.03ZM97.41,10.03c-.17-.1-.34-.14-.51-.14-1.22,0-2.75,2.07-3.57,3.67-.34.95-.44,1.43-.44,2.41.65-.37,4.25-5.37,4.52-5.95ZM99.38,15.88c-.07.07-.2.14-.27.24-1.56,1.5-5,6.02-5,8.23h.03c.27-.07.51-.17.54-.37.07,0,.17-.03.17-.1l.03.07c1.6-1.05,3.26-4.39,3.91-6.19.1-.1.58-1.77.58-1.77v-.1Z"/>
</svg>